/* XPM */
static char *App_xpm[] = {
/* columns rows colors chars-per-pixel */
"32 32 6 1",
"  c black",
". c #008000",
"X c cyan",
"o c #C0C0C0",
"O c gray100",
"+ c None",
/* pixels */
"++++++++++++++++++++++++++++++++",
"++++++++++++.......+++++++++++++",
"++++++++++...........+++++++++++",
"++++++++...............+++++++++",
"++++++...................+++++++",
"+++++.....................++++++",
"+++.........................++++",
"++...........................+++",
"+.............................++",
"...............................+",
"................................",
"................................",
"...............................O",
"O............ooooo............O.",
".O.........ooooooooo.........O..",
"..O.......ooooooooooo.......O...",
"...O.....ooooooXoooooo.....O....",
"....O...ooooooXOXoooooo...O.....",
".....O.ooooooXOOOXoooooo.O......",
"......OoooooXOOOOOXoooooO......+",
"+.....oOoooXOOOOOOOXoooOo.....++",
"++....ooOoXOOOOOOOOOXoOoo....+++",
"+++...oooXOOOOOOOOOOOXooo...++++",
"++++...oooXOOOOOOOOOXooo...+++++",
"+++++...oooXOOOOOOOXooo...++++++",
"++++++...oooXOOOOOXooo...+++++++",
"+++++++...oooXOOOXooo...++++++++",
"++++++++...oooXOXooo...+++++++++",
"+++++++++...oooXooo...++++++++++",
"++++++++++...ooooo...+++++++++++",
"+++++++++++...ooo...++++++++++++",
"++++++++++++.......+++++++++++++"
};
